<svg width="5066" height="5006" viewBox="0 0 5066 5006" fill="none" xmlns="http://www.w3.org/2000/svg">
<g clip-path="url(#clip0_1_44)">
<path fill-rule="evenodd" clip-rule="evenodd" d="M2060.96 4833.38C1597.46 4924.38 889.537 5006.84 526.954 4630.64C166.545 4256.69 476.316 3650 425.829 3142.59C374.182 2623.52 21.9998 2105.68 228.183 1627.92C442.445 1131.44 1397.36 387.674 1948.83 325.312C2478.46 265.42 3539.38 -1.38083 4052.96 148.376C4527.2 286.664 4465.05 797.907 4798.36 1156.24C5129.67 1512.43 4430.74 2411.59 4362.5 2883.09C4309.08 3252.22 4912.62 3541.74 4754.46 3879.88C4569.61 4275.07 4763.39 4247.54 4362.51 4437.88C3959.95 4629.01 2503.54 4746.48 2060.96 4833.38Z" fill="white" stroke="black" stroke-width="60"/>
<path d="M718.5 2100C919.5 2008 1020 1977.5 1142.5 2100C1240.5 2198 1389.67 2159.17 1452 2127.5" stroke="black" stroke-width="60" stroke-linecap="round" stroke-linejoin="round"/>
<path d="M3489 1912C3567 2140.5 3899.5 2162 4357 1975.5" stroke="black" stroke-width="60" stroke-linecap="round" stroke-linejoin="round"/>
<path d="M3879.31 1808.06C4005.72 1853.34 4056.53 1824.69 4088.72 1786.34C4120.91 1747.98 3991.87 1547.63 3904.72 1501.34C3720.22 1403.34 3327.22 1402.05 3151.72 1454.34C3005.72 1497.84 2786.64 1602.76 2744.22 1668.34C2657.22 1802.84 2761.73 1960.75 2875.72 1936.34C3095.22 1889.34 3235.66 1762.63 3481.93 1762.63C3645.72 1762.63 3759.21 1765.05 3879.31 1808.06Z" fill="white" stroke="black" stroke-width="60"/>
<path d="M1328.89 3975.12C403.439 3928.74 818.334 2677.62 901.899 2739.54C1007.99 2818.15 795.764 3401.27 2256.99 3144.25C3028.96 3008.47 4094 2477 4094 2477C4094 2477 3625.62 4090.22 1328.89 3975.12Z" fill="white" stroke="black" stroke-width="60"/>
<path d="M674 4024C772 4257.5 1183.5 4668 3265 4140.5" stroke="black" stroke-width="60" stroke-linecap="round" stroke-linejoin="round"/>
<path d="M2228 1998C2208 2066.5 2248.1 2032.6 2078.5 2183C1866.5 2371 1619.5 2320 1844 2582C2024.15 2792.24 2212.5 2765 2228 2692.5" stroke="black" stroke-width="60" stroke-linecap="round" stroke-linejoin="round"/>
<path fill-rule="evenodd" clip-rule="evenodd" d="M1698.43 1556.66C1871.76 1582.98 1981.11 1651.7 2073.64 1712.26C2156.68 1766.62 2210.09 1822.82 2174.45 1868.23C2136.91 1916.05 2033.19 1947.65 1885.45 1951.99C1727.92 1956.62 1538 1940.06 1386.45 1891.37C1238.71 1843.91 1183.5 1778.28 1162.25 1719.66C1142.62 1665.49 1182.39 1620.39 1277.72 1591.4C1383.93 1559.12 1523.14 1530.04 1698.43 1556.66Z" fill="white" stroke="black" stroke-width="60"/>
</g>
<defs>
<clipPath id="clip0_1_44">
<rect width="5066" height="5006" fill="white"/>
</clipPath>
</defs>
</svg>
